<svg width="292" height="303" viewBox="0 0 292 303" fill="none" xmlns="http://www.w3.org/2000/svg">
<path d="M47.1264 303C44.1592 301.369 42.0599 298.782 39.8642 296.284C27.8422 282.565 15.8029 268.856 3.74622 255.156C-1.53535 249.152 -1.26089 244.741 4.7699 239.545C13.9533 231.637 23.1343 223.71 32.3127 215.764C38.2471 210.641 41.6742 210.537 47.4528 215.712C48.8622 216.979 49.3888 215.801 50.0787 215.267C57.9954 209.082 66.4142 203.567 75.2478 198.78C82.3097 195.029 90.0169 194.147 97.7019 193.013C100.721 192.561 103.77 192.272 106.804 191.931C112.293 191.278 117.619 192.249 122.864 193.673C131.216 195.949 139.532 198.35 147.869 200.678C153.158 202.161 157.394 204.911 159.434 210.256C160.117 212.035 160.673 211.59 161.548 210.434C168.744 200.9 176.992 192.264 184.692 183.161C189.098 177.972 194.773 175.933 201.397 177.824C208.022 179.714 211.99 184.028 213.014 190.908C213.022 191.391 213.195 191.857 213.504 192.229C213.813 192.6 214.239 192.856 214.713 192.954C221.055 194.881 224.838 199.218 225.98 205.689C227.175 212.435 224.215 217.55 219.126 221.627C218.292 222.32 217.404 222.944 216.471 223.495C196.141 235.124 175.801 246.738 155.451 258.337C154.691 258.792 153.888 259.172 153.055 259.471C150.74 260.212 148.953 259.367 147.818 257.336C147.278 256.486 147.088 255.461 147.287 254.475C147.486 253.488 148.059 252.617 148.886 252.043C150.172 251.135 151.526 250.327 152.936 249.626C172.322 238.527 191.712 227.437 211.107 216.357C213.102 215.262 214.81 213.713 216.092 211.835C216.873 210.738 217.292 209.426 217.292 208.08C217.292 206.734 216.873 205.422 216.092 204.325C215.451 203.195 214.466 202.298 213.28 201.765C212.094 201.232 210.77 201.09 209.498 201.36C207.664 201.735 205.879 202.32 204.179 203.102C190.095 208.909 176.001 214.721 161.897 220.538C160.433 221.049 159.206 222.077 158.447 223.429C155.629 228.381 151.193 230.567 145.555 229.871C136.268 228.722 127.01 227.417 117.716 226.127C114.237 225.645 112.478 223.77 112.812 221.086C113.154 218.284 115.579 216.883 119.088 217.38C127.881 218.581 136.673 219.764 145.466 220.93C148.819 221.383 150.325 220.567 151.245 217.839C151.721 216.536 151.736 215.108 151.288 213.795C150.84 212.482 149.955 211.361 148.782 210.619C146.705 209.433 144.376 208.929 142.106 208.306C133.1 205.838 124.191 202.991 115.03 201.086C108.68 199.759 102.494 201.753 96.2258 202.124C83.6152 202.865 73.5417 209.374 63.5868 216.208C60.36 218.432 57.2964 220.908 54.0621 223.347C62.4222 233.021 70.6932 242.547 78.9048 252.132C79.7802 253.162 80.2623 253.051 81.1896 252.258C90.2988 244.385 100.78 243.273 111.996 246.239C118.368 247.929 124.688 249.782 131.023 251.62C134.569 252.651 136.09 255.208 134.888 257.921C133.812 260.353 131.75 261.079 128.331 260.145C122.077 258.403 115.839 256.609 109.593 254.845C104.252 253.362 98.9185 253.044 93.6295 255.008C92.3391 255.484 91.0971 256.083 89.9205 256.795C86.0335 259.197 86.0335 259.293 88.0883 263.155C89.0784 264.89 89.437 266.914 89.103 268.883C88.769 270.852 87.763 272.644 86.256 273.956C75.8709 283.074 65.4042 292.058 54.93 301.058C53.9397 301.783 52.8929 302.427 51.7997 302.985L47.1264 303ZM180.034 203.421C187.555 200.337 195.092 197.187 202.614 194.221C204.224 193.584 204.387 192.739 204.053 191.308C202.814 186.119 195.967 184.273 192.088 188.387C187.719 193.02 183.758 198.024 179.618 202.88C179.463 203.05 179.144 203.302 179.181 203.376C179.396 203.784 179.73 203.577 180.034 203.421ZM80.4626 267.544C79.9211 266.891 79.6318 266.521 79.3277 266.165C66.6479 251.487 53.9781 236.799 41.3181 222.102C40.3686 220.997 39.7974 220.99 38.7367 221.909C29.301 230.137 19.8357 238.314 10.3408 246.439C9.32452 247.313 9.08714 247.825 10.0886 248.959C22.9463 263.503 35.7472 278.082 48.4913 292.696C49.4408 293.793 50.0268 293.719 51.0653 292.815C60.3377 284.72 69.6398 276.657 78.9716 268.626C79.4167 268.248 79.9211 267.936 80.4626 267.544Z" fill="#50B9C3"/>
<path d="M152.506 41.2682C160.888 41.0162 168.432 44.567 176.34 46.4573C180.442 47.4507 184.418 49.0074 188.653 49.4225C195.025 50.0897 200.752 48.57 205.67 44.3224C206.605 43.5143 206.931 43.0622 205.974 41.7871C202.302 36.9093 202.874 32.3133 207.517 28.2732C217.348 19.8025 227.199 11.322 237.07 2.83166C241.899 -1.3048 247.166 -0.874849 251.335 3.95103C263.748 18.3718 276.133 32.8099 288.492 47.2653C293.617 53.2625 293.098 59.356 287.097 64.5748C278.101 72.398 269.074 80.1915 260.014 87.9554C254.643 92.5663 250.794 92.5441 245.534 87.6589C244.243 86.4654 243.68 87.3031 242.871 87.9035C237.827 91.6842 232.634 95.2424 227.471 98.8526C216.619 106.458 204.365 109.038 191.517 110.862C179.351 112.582 168.328 109.12 157.075 105.984C152.624 104.739 148.174 103.508 143.723 102.159C138.975 100.676 135.326 97.9037 133.494 93.1297C132.878 91.5211 132.366 91.3284 131.268 92.8332C124.095 102.47 115.779 111.21 107.939 120.313C103.488 125.436 97.6871 127.333 91.1222 125.362C84.7205 123.442 80.9151 118.897 79.8247 112.278C79.7995 111.808 79.6258 111.358 79.3285 110.993C79.0313 110.628 78.6258 110.367 78.1705 110.246C65.8864 105.895 62.8079 92.6924 71.8652 83.352C73.299 81.8554 74.9403 80.5722 76.7388 79.5417C96.792 68.0663 116.865 56.5983 136.958 45.1378C141.668 42.3998 147.061 41.0577 152.506 41.2682ZM182.585 102.641C185.427 102.359 188.282 102.144 191.109 101.766C199.268 100.676 207.562 100.091 215.009 95.8355C222.614 91.4812 229.924 86.6326 236.892 81.3208C238.591 80.0383 238.376 79.3637 237.182 77.9775C229.586 69.3191 222.049 60.5989 214.572 51.8169C213.251 50.2676 212.487 50.1712 210.863 51.513C204.001 57.2803 196.027 59.3931 187.125 58.1847C178.023 56.9171 169.433 53.6035 160.599 51.2535C153.181 49.2817 146.319 49.8747 139.576 53.7888C120.512 64.8416 101.337 75.7091 82.191 86.6285C80.6314 87.4793 79.2044 88.5532 77.9554 89.8161C74.0387 93.9007 75.1885 99.9942 80.1808 101.595C82.1856 102.181 84.3355 102.015 86.2264 101.128C101.394 94.8619 116.571 88.6053 131.758 82.3586C132.854 81.9359 133.749 81.1151 134.265 80.0606C136.869 75.2421 140.941 72.8922 146.408 73.3888C152.001 73.9078 157.535 74.7232 163.128 75.4348C167.334 75.9686 171.54 76.4801 175.739 77.1472C178.706 77.6291 180.279 79.638 179.937 82.2252C179.596 84.8123 177.823 86.0355 174.804 85.9317C173.825 85.8946 172.846 85.7464 171.837 85.6129C163.44 84.501 155.05 83.3001 146.616 82.3067C143.048 81.8842 141.104 83.9524 141.23 87.5551C141.342 90.8243 142.581 92.507 146.238 93.6116C152.728 95.576 159.263 97.4145 165.806 99.2158C171.355 100.684 176.748 102.67 182.585 102.641ZM282.973 55.3455C282.973 54.1817 282.105 53.4626 281.415 52.6546C269.363 38.5847 257.306 24.5123 245.245 10.4374C244.036 9.02154 243.413 9.02154 242.055 10.2076C232.857 18.2681 223.604 26.2568 214.297 34.1739C212.992 35.2859 212.658 35.9086 213.934 37.3764C226.465 51.8169 238.94 66.3094 251.357 80.8538C252.396 82.0621 252.967 82.2771 254.287 81.1206C263.278 73.2851 272.357 65.5533 281.407 57.777C282.157 57.1321 282.943 56.5168 282.973 55.3455ZM113.769 100.15C112.931 100.091 112.508 99.9349 112.211 100.061C104.66 103.152 97.1382 106.303 89.5867 109.364C88.0067 110.002 88.563 111.106 88.8449 112.04C90.2172 117.044 96.7154 118.964 100.439 115.169C105.016 110.454 109.17 105.369 113.769 100.15Z" fill="#50B9C3"/>
<path d="M110.334 145.644C110.164 135.444 114.971 128.105 123.205 124.71C131.312 121.359 139.791 123.056 145.926 129.55C147.491 131.203 147.981 130.292 148.989 129.231C158.84 119.216 175.694 121.767 182.066 134.198C183.624 137.252 183.179 139.884 180.887 141.189C178.594 142.493 175.917 141.745 174.381 138.616C170.731 131.203 159.768 128.979 153.655 137.43C149.635 142.96 144.813 142.619 140.711 137.045C137.388 132.538 132.551 130.922 127.425 132.597C122.099 134.384 119.117 138.564 119.214 144.228C119.355 152.679 123.212 159.536 128.686 165.607C133.553 171.004 139.45 175.103 145.815 178.558C146.246 178.864 146.76 179.033 147.289 179.043C147.818 179.054 148.338 178.905 148.782 178.617C158.499 173.22 166.993 166.556 172.475 156.593C174.047 153.739 176.569 152.975 178.861 154.325C181.154 155.674 181.695 158.165 180.122 160.996C173.283 173.398 162.683 181.619 150.25 187.78C149.422 188.234 148.497 188.486 147.551 188.515C146.606 188.543 145.668 188.347 144.813 187.943C131.772 181.419 120.564 172.887 113.917 159.432C111.731 155.152 110.508 150.446 110.334 145.644Z" fill="#50B9C3"/>
<path d="M180.034 203.421C179.73 203.576 179.396 203.784 179.181 203.361C179.144 203.287 179.463 203.035 179.618 202.865L180.034 203.421Z" fill="#FCFCFC"/>
</svg>
