<svg width="109" height="113" viewBox="0 0 109 113" fill="none" xmlns="http://www.w3.org/2000/svg">
<g clipPath="url(#clip0_143_571)">
<path d="M80.3408 45.3569C79.0977 44.6521 78.9048 44.1596 79.335 42.7263C81.4474 35.7016 83.5597 28.6759 85.6721 21.6492C85.7759 21.3071 85.9688 20.9798 85.856 20.5286C83.2334 20.5286 80.6068 20.5286 77.9762 20.5286C72.8526 20.5286 69.6425 17.3465 69.6395 12.2859C69.6395 9.63171 69.604 6.97754 69.6633 4.34106C69.6811 3.52417 69.4853 3.31773 68.6427 3.32068C56.8171 3.34624 44.9924 3.34624 33.1688 3.32068C23.6038 3.32068 14.0418 3.33542 4.47689 3.29709C3.54532 3.29709 3.34358 3.52416 3.34358 4.43248C3.3772 19.5102 3.38511 34.5878 3.36731 49.6655C3.3943 50.0324 3.38236 50.4011 3.33171 50.7655C3.14183 51.609 2.61078 52.125 1.69701 52.1221C0.783234 52.1192 0.252177 51.609 0.0652695 50.7685C0.0156709 50.4039 0.00473266 50.0353 0.0326347 49.6685V3.99307C0.0326347 1.10297 1.13035 0.023604 4.06154 0.023604C26.0771 0.023604 48.0967 0.0157398 70.1202 1.13747e-05C70.7262 -0.0181239 71.3294 0.0894683 71.8913 0.315928C72.4532 0.542388 72.9614 0.882746 73.3836 1.3153C77.7864 5.52659 82.2277 9.69659 86.6571 13.8813L87.7103 14.8604C88.3037 13.8194 89.075 13.0379 90.241 12.7283C90.6801 12.6132 90.6326 12.1384 90.7364 11.8081C91.2823 10.0947 91.7659 8.36361 92.3088 6.65019C93.3798 3.26759 96.6581 1.47455 99.9809 2.43595C103.304 3.39735 105.075 6.69148 104.134 10.1036C103.636 11.9055 103.084 13.6926 102.532 15.4797C102.408 15.8838 102.319 16.1905 102.642 16.5827C103.532 17.6739 103.592 18.9066 103.179 20.2248C102.882 21.1833 102.064 22.3511 102.547 23.0766C102.971 23.7165 104.327 23.746 105.286 24.035C106.098 24.2798 106.926 24.4833 107.73 24.7576C108.816 25.1262 109.214 25.8959 108.893 27.0048C106.532 34.869 104.158 42.7332 101.773 50.5974C101.423 51.7505 100.586 52.2902 99.6516 52.0277C98.6311 51.7328 98.2335 50.798 98.6222 49.5063C100.72 42.5523 102.805 35.5954 104.944 28.6533C105.223 27.7479 105.191 27.2849 104.134 27.1109C103.197 26.9546 102.037 26.182 101.432 26.5211C100.826 26.8603 100.755 28.1962 100.479 29.1075C97.475 39.0439 94.4716 48.9813 91.4692 58.9197C91.2638 59.6239 91.1638 60.3542 91.1725 61.0873C91.1844 77.0831 91.1844 93.0799 91.1725 109.078C91.1725 111.354 90.6088 112.195 88.5588 112.994H2.25476C0.436119 112.065 0 110.543 0 108.582C0.0563691 92.0674 0.0326347 75.5526 0.0326347 59.0377C0.00724002 58.671 0.0161788 58.3027 0.0593359 57.9377C0.234377 57.0294 0.806968 56.4956 1.75338 56.5192C2.64341 56.5398 3.1804 57.0766 3.34061 57.9347C3.38222 58.2999 3.39115 58.668 3.36731 59.0347C3.36731 75.5496 3.3594 92.0645 3.34358 108.579C3.34358 109.488 3.54235 109.715 4.47689 109.715C31.8703 109.683 59.2637 109.683 86.6571 109.715C87.6688 109.715 87.8438 109.443 87.8438 108.503C87.8112 96.2935 87.823 84.0843 87.823 71.7984C87.3602 72.1405 87.381 72.6536 87.2564 73.0665C85.9233 77.4174 84.609 81.7722 83.3135 86.1309C83.1344 86.7293 82.8312 87.2839 82.4235 87.7588C79.338 91.4275 76.2595 95.103 73.1878 98.7854C71.7667 100.478 70.7313 100.767 68.6071 100.101C67.469 99.7434 66.4666 99.0513 65.7323 98.116C65.2042 97.4583 64.7325 96.7594 64.2281 96.0723C63.5754 97.0691 62.9939 98.0865 62.2849 99.0066C60.4247 101.422 58.1076 101.631 55.7787 99.6584C54.3101 98.4109 54.3101 98.4109 52.7288 99.5994C50.5838 101.21 48.1956 101 46.3591 99.0302C45.7242 98.346 45.6352 97.594 46.2078 96.8331C46.332 96.6586 46.4911 96.5116 46.6752 96.4012C46.8593 96.2908 47.0645 96.2195 47.2777 96.1918C47.4909 96.1641 47.7075 96.1806 47.914 96.2402C48.1205 96.2998 48.3123 96.4013 48.4774 96.5382C50.0083 97.8565 50.1803 97.4053 51.4442 96.3642C53.5714 94.6213 55.1616 94.6774 57.2532 96.5235C58.9591 98.0305 59.057 98.0187 60.2526 96.1165C60.7392 95.338 61.1427 94.5063 61.6915 93.7572C63.1749 91.7076 65.3199 91.7342 66.7914 93.7779C67.4441 94.6803 67.8951 95.742 68.975 96.6002C68.6219 93.48 68.2956 90.5781 67.9663 87.6762C67.7912 86.1044 67.6162 84.5355 67.4293 82.9577C67.3951 82.4811 67.4628 82.0027 67.6281 81.5539C70.6839 71.4012 73.7367 61.2485 76.7866 51.0958C77.2078 49.695 77.5965 49.4237 79.0977 49.4207C80.3111 50.3055 80.4298 50.6535 79.9877 52.1368C77.1436 61.5582 74.2935 70.9766 71.4374 80.392C71.1882 81.2059 71.298 81.4949 72.1643 81.722C74.5229 82.3384 76.8607 83.0432 79.1837 83.7864C80.0886 84.0813 80.4802 83.9958 80.765 82.9783C81.7708 79.3716 82.8922 75.7973 83.9751 72.2113C89.2659 54.674 94.5606 37.1349 99.8593 19.5937C100.085 18.8447 99.9958 18.5173 99.1621 18.2902C96.8154 17.6562 94.4805 16.9631 92.1783 16.1905C91.1607 15.8484 90.8165 16.0873 90.5169 17.0929C87.8972 25.9401 85.2182 34.7461 82.554 43.5698C82.112 45.0797 81.8004 45.3274 80.3408 45.3569ZM85.233 17.143L73.0365 5.60327C73.0365 8.34886 72.9327 10.8703 73.0662 13.377C73.1306 14.3664 73.5635 15.2964 74.2805 15.9856C74.9974 16.6748 75.9469 17.0738 76.9438 17.1047C79.6199 17.2462 82.3078 17.143 85.233 17.143ZM100.99 8.73814C100.99 6.96869 100.055 5.83035 98.7408 5.58852C98.1014 5.44661 97.4318 5.54494 96.861 5.86457C96.2903 6.18421 95.8587 6.70252 95.6494 7.31963C95.0323 9.08908 94.5458 10.8792 93.9702 12.6545C93.8041 13.1588 94.0474 13.3063 94.4449 13.4183C95.6316 13.7427 96.8184 14.0082 97.9457 14.424C98.904 14.7897 99.3253 14.6717 99.5775 13.6071C99.9988 11.8376 100.574 10.1065 100.99 8.73814ZM71.12 84.9336C71.3722 87.0864 71.6036 89.0623 71.8706 91.3655C73.3035 89.6669 74.4992 88.2395 75.7066 86.8151C76.0033 86.4524 75.7927 86.299 75.4723 86.2017C74.0719 85.7918 72.6864 85.3877 71.12 84.9336Z" fill="#50B9C3"/>
<path d="M44.3979 33.6196C38.5474 33.6196 32.6959 33.6196 26.8434 33.6196C24.2266 33.6196 23.301 32.6965 23.2832 30.1072C23.2832 28.2699 23.2832 26.4327 23.2832 24.5954C23.301 22.4514 24.3453 21.4133 26.4814 21.4133C38.4475 21.4133 50.4135 21.4133 62.3796 21.4133C64.5157 21.4133 65.5927 22.475 65.6075 24.5836C65.6213 26.532 65.6213 28.4803 65.6075 30.4287C65.5927 32.5373 64.5276 33.6107 62.3885 33.6137C56.3986 33.6196 50.3997 33.6196 44.3979 33.6196ZM44.3979 30.2812V30.2281C49.9873 30.2281 55.5797 30.2045 61.1692 30.2517C62.0948 30.2517 62.2876 29.9568 62.2372 29.1281C62.1497 28.0653 62.1497 26.9971 62.2372 25.9343C62.344 24.8932 61.9138 24.7546 60.9971 24.7546C51.4796 24.7723 41.9651 24.7546 32.4476 24.734C30.8189 24.734 29.1842 24.7694 27.5613 24.7163C26.8137 24.6898 26.6119 24.9434 26.6446 25.6512C26.7128 26.7885 26.7128 27.9289 26.6446 29.0662C26.5763 30.007 26.8256 30.3078 27.8313 30.2989C33.3644 30.2488 38.8826 30.2783 44.4008 30.2783L44.3979 30.2812Z" fill="#50B9C3"/>
<path d="M45.3918 43.0566H67.2868C67.6191 43.0383 67.9523 43.0453 68.2836 43.0772C69.2241 43.2188 69.767 43.8116 69.7492 44.7258C69.7492 45.5958 69.2241 46.162 68.3548 46.336C68.0243 46.3784 67.6904 46.3882 67.358 46.3655C52.7613 46.3655 38.1647 46.3655 23.5681 46.3655C23.2358 46.3907 22.9017 46.3818 22.5712 46.3389C21.6812 46.1413 21.1264 45.584 21.165 44.6344C21.2035 43.7496 21.7405 43.2276 22.6098 43.0802C22.9408 43.0442 23.2743 43.0363 23.6066 43.0566H45.3918Z" fill="#50B9C3"/>
<path d="M44.033 59.1999H23.6867C23.3166 59.2167 22.9458 59.2068 22.5772 59.1704C22.2012 59.1401 21.8497 58.9728 21.5902 58.7006C21.3307 58.4285 21.1814 58.0707 21.1709 57.6959C21.0938 56.8702 21.5002 56.298 22.2923 56.0002C22.7213 55.88 23.1691 55.841 23.6126 55.8852C37.2598 55.8852 50.8982 55.8852 64.5276 55.8852C65.0073 55.8343 65.4923 55.8835 65.9517 56.0297C66.309 56.1511 66.6096 56.3976 66.7974 56.7233C66.9852 57.0489 67.0473 57.4313 66.9723 57.7991C66.9429 58.1516 66.7893 58.4824 66.5386 58.7333C66.2878 58.9842 65.956 59.139 65.6016 59.1704C65.2331 59.2093 64.8622 59.2201 64.492 59.2029L44.033 59.1999Z" fill="#50B9C3"/>
<path d="M42.5144 68.7697H61.1844C61.5921 68.7523 62.0006 68.775 62.4038 68.8376C62.763 68.9147 63.0853 69.1104 63.3185 69.3928C63.5517 69.6751 63.682 70.0275 63.6881 70.3928C63.6943 70.758 63.5761 71.1146 63.3526 71.4046C63.1291 71.6946 62.8135 71.901 62.4572 71.9901C62.0939 72.0615 61.7235 72.0902 61.3535 72.0756C48.7229 72.0756 36.0913 72.0756 23.4587 72.0756C23.1255 72.0872 22.7921 72.0614 22.4648 71.999C22.0734 71.9446 21.7189 71.7401 21.4771 71.4293C21.2354 71.1185 21.1256 70.7259 21.1713 70.3357C21.1606 69.9614 21.2935 69.5971 21.5431 69.3167C21.7927 69.0363 22.1402 68.8608 22.5152 68.8258C22.9193 68.7721 23.3272 68.7524 23.7346 68.7668L42.5144 68.7697Z" fill="#50B9C3"/>
<path d="M36.2722 81.6485C40.6779 81.6485 45.0836 81.6485 49.4893 81.6485C50.6108 81.6485 51.3436 82.3062 51.3643 83.2499C51.3851 84.1936 50.6464 84.8837 49.5575 84.9485C49.2609 84.9662 48.9642 84.9485 48.6675 84.9485H32.2315C29.3062 84.9485 26.3819 84.9485 23.4587 84.9485C21.9545 84.9485 21.1831 84.3912 21.1564 83.3118C21.1297 82.2324 21.9011 81.6426 23.3904 81.6367H36.2722V81.6485Z" fill="#50B9C3"/>
</g>
<defs>
<clipPath id="clip0_143_571">
<rect width="109" height="113" fill="white"/>
</clipPath>
</defs>
</svg>
