<svg width="145" height="113" viewBox="0 0 145 113" fill="none" xmlns="http://www.w3.org/2000/svg">
<g clipPath="url(#clip0_143_560)">
<path d="M0.000179072 100.796C0.797018 99.6513 1.887 99.3548 3.26598 99.3589C49.4166 99.3864 95.5686 99.3946 141.722 99.3836C144.335 99.3836 144.988 100.03 144.992 102.612C144.992 103.847 145.017 105.062 144.992 106.285C144.957 108.044 144.237 109.722 142.986 110.962C141.734 112.203 140.047 112.91 138.283 112.934C137.808 112.934 137.337 112.934 136.867 112.934C94.3438 112.934 51.8181 112.955 9.28976 112.996C5.00004 112.996 1.71772 112.037 -0.012207 107.849L0.000179072 100.796ZM72.5538 104.008H6.31296C5.98267 104.008 5.65237 104.028 5.32207 104.008C4.55827 103.954 4.55414 104.345 4.80186 104.876C5.3262 105.988 6.29645 106.149 7.40294 106.149C50.8093 106.149 94.2144 106.149 137.618 106.149C138.088 106.199 138.563 106.146 139.009 105.992C139.753 105.663 140.438 105.123 140.273 104.345C140.141 103.711 139.298 104.057 138.795 104.057C116.728 104.016 94.6479 103.999 72.5538 104.008Z" fill="#50B9C3"/>
<path d="M55.0563 34.7514C54.5052 34.7326 53.9663 34.5845 53.4833 34.3191C50.395 33.055 47.2902 31.8115 44.2267 30.4981C43.2317 30.0863 42.6331 30.0863 41.9188 31.0828C39.9618 33.8456 37.8272 36.4849 35.7877 39.1901C35.0651 40.1494 34.26 40.9071 32.9513 40.5447C31.6425 40.1824 31.3369 39.1159 31.1842 37.926C30.6103 33.4544 29.9992 28.9828 29.4501 24.5071C29.4271 24.1853 29.3048 23.8784 29.1001 23.6285C28.8954 23.3786 28.6181 23.198 28.3065 23.1113C25.5361 21.9378 22.7946 20.6944 20.0202 19.525C18.9302 19.0638 18.121 18.405 18.1664 17.1533C18.2159 15.8316 19.1118 15.2469 20.3009 14.8723C35.7808 10.0136 51.2538 5.1358 66.7199 0.238745C67.7892 -0.0988885 68.7843 -0.173003 69.61 0.683432C70.4357 1.53987 70.2871 2.61865 69.8329 3.68919C65.7042 13.4064 61.5755 23.1278 57.4468 32.8533C57.0009 33.9115 56.4105 34.7638 55.0563 34.7514ZM45.069 19.4962C41.3284 20.3979 37.852 22.0572 34.2311 23.3048C34.1641 23.3216 34.1012 23.3515 34.0459 23.3928C33.9906 23.4341 33.9441 23.486 33.9091 23.5454C33.8741 23.6048 33.8514 23.6706 33.8422 23.7388C33.8329 23.8071 33.8375 23.8765 33.8554 23.9431C34.2683 26.7512 34.6234 29.5593 35.028 32.5362C36.0024 31.7127 36.5432 30.7822 37.1832 29.9381C39.809 26.4492 42.428 22.9617 45.0401 19.4756C45.0696 19.4502 45.0972 19.4227 45.1227 19.3932C45.1227 19.3932 45.1227 19.3521 45.1227 19.3274L45.069 19.4962ZM26.7912 17.5363C27.6624 17.9315 28.3147 18.1786 28.901 18.5286C30.5525 19.4921 32.1296 19.385 33.9421 18.6686C39.3796 16.511 44.8997 14.5511 50.3909 12.5541C50.9937 12.3318 51.5717 11.9941 52.2818 12.1877C54.0448 12.6571 54.5939 14.4646 53.3883 16.0704C51.0157 19.2244 48.6183 22.3592 46.1961 25.4748C45.6842 26.1294 45.7833 26.3271 46.514 26.6071C48.6114 27.4306 50.7005 28.254 52.7484 29.1722C53.6113 29.5593 53.987 29.4852 54.3544 28.5505C56.072 24.3589 57.8804 20.2003 59.6557 16.0293C61.1049 12.7023 62.4921 9.37131 63.995 5.81381L26.7912 17.5363Z" fill="#50B9C3"/>
<path d="M129.167 94.846C129.167 86.0922 129.156 77.3385 129.134 68.5847C129.134 56.5809 129.134 44.5785 129.134 32.5774C129.134 32.1657 129.105 31.7333 129.088 31.3133C129.179 28.9787 128.473 28.2211 126.198 28.2211H66.0016C64.3088 28.2211 64.3088 28.2211 64.9446 26.7224C66.2328 23.6919 66.2328 23.6919 69.5275 23.6919H126.025C130.942 23.6919 133.663 26.3888 133.663 31.2639C133.663 51.9748 133.675 72.6857 133.7 93.3966C133.7 94.6936 133.328 95.0066 132.139 94.883C131.157 94.7801 130.157 94.8542 129.167 94.846Z" fill="#50B9C3"/>
<path d="M25.2138 28.217C23.0463 28.217 20.8787 28.217 18.707 28.217C16.5353 28.217 15.8499 28.9581 15.8499 31.0992C15.8499 51.7854 15.8499 72.4716 15.8499 93.1578C15.8499 93.7219 15.8499 94.2819 15.8169 94.846C14.7806 94.846 13.7526 94.7966 12.7039 94.883C11.6552 94.9695 11.2629 94.706 11.2877 93.5407C11.3662 89.3533 11.3166 85.1658 11.3166 80.9783C11.3166 64.2833 11.3166 47.5842 11.3166 30.881C11.3166 27.2 13.5007 24.4536 16.9317 23.7948C17.5295 23.6288 18.165 23.6591 18.7442 23.8813C20.631 24.7295 22.526 25.5571 24.4459 26.3518C25.3996 26.7347 25.2551 27.4717 25.2138 28.217Z" fill="#50B9C3"/>
<path d="M72.4545 45.1565C81.8432 45.1565 91.2332 45.1565 100.625 45.1565C104.398 45.1565 106.475 47.2152 106.479 51.0115C106.479 60.6546 106.479 70.3005 106.479 79.9491C106.479 83.7125 104.382 85.8207 100.633 85.8207H44.2968C40.6346 85.8207 38.5166 83.6878 38.5166 80.0274C38.5166 70.3293 38.5166 60.6354 38.5166 50.9456C38.5166 47.2687 40.6222 45.1565 44.2968 45.1565C53.6799 45.151 63.0659 45.151 72.4545 45.1565ZM48.6154 49.7104C48.9911 50.0357 49.1439 50.1921 49.3214 50.3198C56.6622 55.5819 64.0031 60.8468 71.3439 66.1144C72.3018 66.8062 72.9954 66.5756 73.8665 65.958C81.0835 60.7617 88.3074 55.5805 95.5381 50.4145C95.7652 50.2498 96.1863 50.1798 96.0707 49.7104H48.6154ZM95.3399 81.2009L81.1785 69.8613C78.8045 67.959 78.8086 67.9632 76.224 69.7543C74.6634 70.8413 73.0243 71.4671 71.0632 70.9236C69.5025 70.5119 68.3506 69.4496 67.1161 68.5355C66.4762 68.062 66.0344 68.0373 65.411 68.5725C64.0526 69.7337 62.6282 70.8166 61.2286 71.9365L49.6682 81.2009H95.3399ZM43.0995 80.6491C49.47 75.5805 55.6383 70.6642 61.819 65.7685C62.6447 65.1139 62.0048 64.9121 61.5548 64.5909C55.6755 60.3719 49.7976 56.1501 43.9211 51.9256C43.694 51.7609 43.4793 51.415 43.0953 51.6415L43.0995 80.6491ZM101.896 51.518C101.754 51.5486 101.616 51.5942 101.483 51.6538C95.4019 56.0101 89.3327 60.3829 83.2346 64.7145C82.3882 65.3156 82.9249 65.538 83.3708 65.9044C87.717 69.3576 92.0631 72.8163 96.4093 76.2805L101.876 80.6409L101.896 51.518Z" fill="#50B9C3"/>
<path d="M27.2081 63.2238C26.4071 63.2238 25.6062 63.2691 24.8134 63.2238C24.235 63.196 23.6896 62.9465 23.2912 62.5273C22.8928 62.1081 22.6721 61.5517 22.6753 60.9741C22.6785 60.3965 22.9053 59.8425 23.3083 59.4277C23.7114 59.0129 24.2595 58.7694 24.8382 58.7481C26.3865 58.6822 27.9389 58.6863 29.4871 58.7481C29.7821 58.7475 30.0743 58.8056 30.3465 58.919C30.6187 59.0325 30.8655 59.199 31.0723 59.4087C31.2792 59.6185 31.442 59.8673 31.5512 60.1406C31.6604 60.4139 31.7139 60.7062 31.7084 61.0003C31.7051 61.5937 31.4667 62.1618 31.0452 62.5806C30.6237 62.9994 30.0532 63.235 29.4582 63.2361C28.7109 63.2814 27.9595 63.2361 27.2081 63.2361V63.2238Z" fill="#50B9C3"/>
<path d="M117.825 58.7234C118.626 58.7234 119.427 58.674 120.22 58.7234C120.789 58.755 121.325 59.0031 121.717 59.4167C122.108 59.8303 122.326 60.3779 122.325 60.9468C122.34 61.5144 122.133 62.0655 121.748 62.4836C121.362 62.9016 120.829 63.1538 120.261 63.1867C118.62 63.2691 116.976 63.2691 115.335 63.1867C114.764 63.1475 114.231 62.8868 113.851 62.4603C113.47 62.0339 113.273 61.4758 113.3 60.9056C113.311 60.3371 113.54 59.7945 113.94 59.3894C114.341 58.9843 114.881 58.7474 115.451 58.7275C116.227 58.674 117.028 58.7234 117.825 58.7234Z" fill="#50B9C3"/>
<path d="M27.1339 72.2578C26.3371 72.2578 25.532 72.3113 24.7434 72.2578C24.1765 72.2149 23.6474 71.958 23.2638 71.5395C22.8803 71.121 22.6711 70.5724 22.6791 70.0055C22.6688 69.436 22.8818 68.885 23.2728 68.4697C23.6637 68.0544 24.2017 67.8077 24.7723 67.7821C26.366 67.708 27.9638 67.7121 29.5575 67.7821C30.1296 67.7949 30.6743 68.0295 31.0759 68.4362C31.4774 68.8428 31.7044 69.3895 31.7085 69.9602C31.7241 70.5526 31.5032 71.1268 31.0945 71.5568C30.6857 71.9869 30.1225 72.2375 29.5286 72.2537C28.7359 72.3113 27.9308 72.2537 27.1339 72.2537V72.2578Z" fill="#50B9C3"/>
<path d="M117.949 67.7529C118.651 67.7529 119.357 67.72 120.058 67.7529C120.653 67.7485 121.225 67.9791 121.65 68.3941C122.075 68.8092 122.317 69.3751 122.325 69.9681C122.334 70.2624 122.284 70.5555 122.177 70.8301C122.071 71.1047 121.91 71.3552 121.705 71.567C121.5 71.7788 121.254 71.9476 120.983 72.0633C120.712 72.179 120.42 72.2395 120.124 72.241C118.58 72.3027 117.028 72.3027 115.48 72.241C115.185 72.2384 114.893 72.177 114.622 72.0606C114.351 71.9442 114.106 71.775 113.902 71.5629C113.697 71.3508 113.537 71.1002 113.431 70.8256C113.325 70.5511 113.274 70.2581 113.283 69.964C113.291 69.3706 113.534 68.8046 113.96 68.39C114.386 67.9755 114.959 67.7463 115.554 67.7529C116.351 67.72 117.148 67.7529 117.949 67.7529Z" fill="#50B9C3"/>
<path d="M45.0689 19.4962L45.1143 19.3274C45.1143 19.3521 45.1143 19.3809 45.1143 19.3933C45.0889 19.4227 45.0613 19.4503 45.0317 19.4756L45.0689 19.4962Z" fill="#E0EAF3"/>
</g>
<defs>
<clipPath id="clip0_143_560">
<rect width="145" height="113" fill="white"/>
</clipPath>
</defs>
</svg>
