<svg width="119" height="119" viewBox="0 0 119 119" fill="none" xmlns="http://www.w3.org/2000/svg">
<g clipPath="url(#clip0_144_584)">
<path d="M113.062 59.8874C113.019 56.2508 112.682 52.6235 112.055 49.0411C111.72 47.1228 112.65 45.7221 114.274 45.4866C116.025 45.2355 117.271 46.2582 117.615 48.2322C120.763 66.2217 116.896 82.5284 105.408 96.7526C95.5067 109.018 82.5685 116.276 66.8723 118.17C39.3845 121.504 13.6353 106.294 4.21135 80.2414C-4.2736 56.7513 0.619655 35.5141 17.9738 17.4937C26.936 8.18131 38.1821 2.89138 50.9591 0.945238C57.5911 -0.0335048 64.3415 0.126844 70.9195 1.41938C72.7975 1.77576 73.7799 3.04323 73.5319 4.74766C73.2964 6.37151 71.8957 7.3105 69.9743 6.96342C63.1969 5.73933 56.4226 5.59987 49.639 6.90454C37.6563 9.20603 27.6023 14.9081 19.4768 24.0108C11.8131 32.6073 7.332 42.7037 6.25666 54.1575C4.85903 69.0324 8.91866 82.3828 18.5223 93.8799C26.3937 103.304 36.3909 109.492 48.4614 111.826C68.4435 115.687 85.5745 110.087 99.368 95.135C108.569 85.1625 112.879 73.089 113.062 59.8874Z" fill="#FDFCDC"/>
<path d="M59.5188 59.4627C64.8242 55.744 70.6751 56.2305 76.3369 57.0425C82.5348 57.9319 86.9942 63.1133 87.5613 69.3515C87.8712 72.8038 88.054 76.3056 87.2514 79.733C86.5615 82.713 84.9036 85.3803 82.5369 87.318C80.1702 89.2558 77.2282 90.3547 74.1707 90.443C71.8868 90.5205 69.5935 90.5236 67.3065 90.443C60.0332 90.1765 54.0461 84.3195 53.9593 77.0462C53.8209 65.3404 53.8209 53.6346 53.9593 41.9288C54.0461 34.6711 60.058 28.8047 67.3468 28.5847C70.4179 28.4918 73.5137 28.2376 76.5631 28.8543C82.9345 30.1435 87.7193 36.0222 87.6945 42.4526C87.7214 43.2107 87.447 43.9485 86.9313 44.5049C86.4156 45.0612 85.7006 45.3907 84.9427 45.4214C83.576 45.5205 82.2993 44.4049 82.0637 42.8802C81.9367 42.059 81.9739 41.2254 81.7538 40.401C81.2858 38.6454 80.2617 37.0885 78.835 35.9634C77.4082 34.8383 75.6555 34.2055 73.8391 34.1597C71.8145 34.1164 69.7898 34.1164 67.7651 34.1597C63.284 34.2589 59.5994 37.8599 59.5405 42.3193C59.463 47.9501 59.5188 53.584 59.5188 59.4627ZM82.0049 73.6808C82.0049 72.5403 82.0513 71.3937 82.0049 70.2533C81.9077 68.1928 81.0433 66.2432 79.5815 64.7878C78.1198 63.3324 76.1665 62.4764 74.1056 62.3882C71.9549 62.3045 69.7981 62.3076 67.6443 62.3882C65.4906 62.4488 63.4439 63.34 61.9323 64.8752C60.4207 66.4105 59.5615 68.4709 59.5343 70.6252C59.494 72.6457 59.4878 74.6538 59.5343 76.6898C59.5947 78.8432 60.4788 80.8913 62.0043 82.4122C63.5299 83.9331 65.5807 84.811 67.7342 84.8649C69.7547 84.9145 71.7814 84.9083 73.8019 84.8649C75.6395 84.8321 77.4151 84.1952 78.8546 83.0526C80.2941 81.91 81.3173 80.3252 81.7662 78.543C82.197 76.9285 81.9429 75.3046 82.0049 73.6808Z" fill="#FDFCDC"/>
<path d="M92.9191 20.0813C91.3696 20.0813 89.8387 20.0813 88.2985 20.0813C86.1726 20.0596 84.8896 18.9874 84.8896 17.2519C84.8896 15.5165 86.1664 14.4071 88.2768 14.3978C91.3572 14.3978 94.4406 14.3234 97.5148 14.4319C98.7885 14.4753 99.0023 14.0383 98.9744 12.901C98.9031 9.78036 98.931 6.65351 98.9744 3.52976C98.9961 1.54953 100.186 0.288253 101.891 0.337836C103.542 0.384321 104.633 1.62081 104.649 3.55455C104.67 6.81156 104.683 10.0624 104.63 13.3225C104.63 14.1778 104.844 14.4319 105.715 14.4164C108.969 14.3637 112.222 14.3761 115.483 14.4164C117.215 14.4164 118.321 15.2469 118.65 16.6477C119.084 18.4884 117.674 20.0565 115.52 20.0906C112.353 20.1185 109.182 20.1681 106.018 20.0627C104.779 20.0193 104.596 20.4284 104.621 21.5254C104.695 24.6461 104.658 27.7729 104.636 30.8967C104.636 32.5639 103.982 33.5432 102.684 33.9956C100.775 34.6681 98.9899 33.2674 98.9651 31.002C98.9279 27.7884 98.9124 24.5748 98.9837 21.3643C99.0085 20.3323 98.7389 20.0131 97.6945 20.0751C96.0924 20.1433 94.5181 20.0813 92.9191 20.0813Z" fill="#FDFCDC"/>
<path d="M39.766 59.5C39.766 68.7019 39.766 77.9037 39.766 87.1056C39.766 89.2346 38.7991 90.4122 37.0699 90.4617C36.36 90.4933 35.6649 90.2527 35.1264 89.789C34.5879 89.3254 34.2467 88.6738 34.1724 87.9671C34.1489 87.6578 34.1427 87.3474 34.1538 87.0374C34.1538 68.6792 34.1538 50.3199 34.1538 31.9596C34.1538 29.7408 35.2291 28.4857 37.0637 28.5508C37.7302 28.5517 38.3724 28.8013 38.8647 29.2506C39.357 29.6999 39.664 30.3167 39.7257 30.9803C39.7671 31.4626 39.7806 31.9468 39.766 32.4306C39.766 41.4527 39.766 50.4759 39.766 59.5Z" fill="#FDFCDC"/>
</g>
<defs>
<clipPath id="clip0_144_584">
<rect width="119" height="119" fill="white"/>
</clipPath>
</defs>
</svg>
