<svg width="119" height="119" viewBox="0 0 119 119" fill="none" xmlns="http://www.w3.org/2000/svg">
<g clipPath="url(#clip0_143_579)">
<path d="M118.898 116.809C118.132 117.884 117.082 118.101 115.799 118.101C98.858 118.064 81.917 118.056 64.976 118.076C62.5651 118.076 62.0971 117.599 62.187 115.225C62.6022 103.514 69.9561 93.5512 81.2146 89.4481C81.385 89.3862 81.5586 89.3335 81.8902 89.2219C76.8791 85.686 74.1985 81.0283 74.338 74.9667C74.4403 70.5476 76.1974 66.804 79.3738 63.7516C85.832 57.5537 96.1237 57.9224 102.275 64.4364C108.38 70.9009 108.609 82.6986 99.1483 89.2281C100.143 89.6279 101.122 89.9502 102.043 90.3964C111.811 95.1409 117.395 102.879 118.675 113.691C118.7 113.899 118.591 114.172 118.901 114.268L118.898 116.809ZM90.465 114.351H112.97C115.024 114.351 115.024 114.351 114.733 112.281C112.939 99.5105 100.168 89.9409 87.3939 91.8064C75.9805 93.4706 67.7093 101.763 66.0111 113.189C65.8809 114.069 66.0328 114.37 67.0214 114.367C74.8431 114.351 82.6525 114.351 90.465 114.351ZM90.465 87.9018C93.7665 87.9059 96.9345 86.5983 99.2719 84.2666C101.609 81.935 102.925 78.7703 102.929 75.4687C102.933 72.1672 101.625 68.9992 99.2939 66.6618C96.9622 64.3243 93.7975 63.0088 90.496 63.0047C83.6349 62.9582 77.9855 68.6417 78.0227 75.5586C78.0553 78.8438 79.3831 81.9835 81.7175 84.2953C84.052 86.607 87.2044 87.9042 90.4898 87.9049L90.465 87.9018Z" fill="#FDFCDC"/>
<path d="M0.027832 113.791C0.557754 112.991 0.399707 112.04 0.585645 111.166C2.84788 100.524 9.09229 93.3129 19.2352 89.4423C19.4025 89.3772 19.6287 89.4113 19.7155 89.1882C9.84533 82.5006 10.6666 69.8321 17.4533 63.6218C19.0674 62.1294 20.9686 60.9816 23.0409 60.2483C25.1132 59.515 27.3132 59.2115 29.5067 59.3565C31.7002 59.5015 33.8411 60.0919 35.7989 61.0916C37.7566 62.0913 39.4902 63.4794 40.8938 65.1712C46.6765 72.0881 45.942 83.1452 37.1998 89.1076C37.3083 89.5569 37.7515 89.4764 38.0335 89.5786C43.3951 91.5087 48.0496 95.0116 51.3885 99.6293C54.7274 104.247 56.5953 109.765 56.7481 115.461C56.8038 117.522 56.2615 118.086 54.1883 118.086C37.1647 118.086 20.1442 118.094 3.12679 118.111C1.84692 118.111 0.793275 117.897 0.027832 116.818V113.791ZM28.3864 114.352C35.514 114.352 42.6137 114.352 49.7289 114.352C50.7919 114.352 52.2515 114.851 52.8279 114.125C53.4043 113.4 52.7194 112.065 52.518 111.011C50.0388 98.8011 37.8289 90.124 25.4982 91.7975C14.1467 93.347 5.53468 101.962 4.03788 113.233C3.91393 114.163 4.17114 114.38 5.09463 114.376C12.842 114.352 20.6142 114.352 28.3864 114.352ZM28.312 87.8897C34.9438 88.0539 40.7079 82.5688 40.8845 75.9277C41.0673 68.89 35.734 63.2499 28.6684 63.0144C22.0893 62.7943 16.2199 68.3353 16.0494 74.9298C15.8635 82.076 21.203 87.7162 28.312 87.8928V87.8897Z" fill="#FDFCDC"/>
<path d="M50.4697 0.84605H71.586C75.4597 0.84605 77.5019 2.90066 77.5081 6.79295C77.5081 9.22563 77.5081 9.22563 79.9873 9.22563C83.2381 9.22563 86.4951 9.22563 89.7366 9.22563C93.4554 9.24423 95.4883 11.2802 95.4914 14.9556C95.4914 23.7381 95.4914 32.5184 95.4914 41.2968C95.4914 44.9039 93.4182 46.9524 89.8017 46.9678C87.5023 46.9678 87.5023 46.9678 87.5023 49.2394C87.5023 51.0988 87.5023 52.9581 87.5023 54.8175C87.5023 55.7255 87.3008 56.5095 86.4176 56.9527C85.5344 57.3958 84.8682 57.0612 84.1678 56.5529C79.9997 53.55 75.8006 50.5719 71.6511 47.566C71.1329 47.1704 70.4962 46.9618 69.8444 46.974C62.379 46.9926 54.9105 46.9493 47.4451 47.0081C44.8699 47.0298 42.9114 46.19 41.8329 43.7728C41.523 43.1034 41.2751 43.4629 40.9807 43.6892C38.9354 45.1519 36.8932 46.6115 34.8603 48.0866C34.1103 48.632 33.3542 49.072 32.4183 48.5514C31.4824 48.0308 31.3863 47.1972 31.3925 46.2613C31.4142 44.0176 31.3646 41.7709 31.4204 39.5303C31.439 38.7401 31.1787 38.5201 30.438 38.6007C29.7816 38.6379 29.1236 38.6379 28.4671 38.6007C25.678 38.5232 23.4468 36.3973 23.4344 33.5772C23.391 24.3713 23.391 15.1643 23.4344 5.95623C23.4344 3.0649 25.6037 0.926623 28.526 0.87704C32.2757 0.808863 36.0286 0.858446 39.7814 0.855347L50.4697 0.84605ZM35.133 43.1189C35.6629 43.0539 35.917 42.7409 36.2176 42.5239C39.394 40.2555 42.5767 37.9933 45.7252 35.7062C46.4647 35.1482 47.3712 34.8566 48.2973 34.8788C56.0447 34.9036 63.7735 34.8788 71.5116 34.8788C73.4206 34.8788 73.7956 34.5007 73.7956 32.567V6.91071C73.7956 4.92428 73.433 4.5679 71.4156 4.5679H40.0789C36.4035 4.5679 32.7282 4.5679 29.0528 4.5679C27.6955 4.5679 27.1562 5.00485 27.1531 6.18556C27.1366 15.2015 27.1366 24.2163 27.1531 33.2302C27.1531 34.3489 27.6769 34.8478 28.7894 34.8695C30.1034 34.8912 31.4204 34.8695 32.7344 34.8695C34.4977 34.8695 35.1268 35.4893 35.133 37.2247C35.1423 39.1678 35.133 41.1015 35.133 43.1189ZM83.7866 51.6783C83.7866 49.4315 83.7866 47.4575 83.7866 45.4803C83.7866 43.9309 84.4374 43.2956 85.9559 43.2646C87.2327 43.2398 88.5094 43.2646 89.7831 43.2646C91.3574 43.2646 91.7602 42.8524 91.7602 41.2596C91.7602 32.5205 91.7602 23.7804 91.7602 15.0393C91.7602 13.3256 91.3822 12.9599 89.6189 12.9568C85.9466 12.9568 82.2712 12.9878 78.599 12.9289C77.6693 12.9134 77.4678 13.183 77.474 14.0755C77.5112 20.2238 77.3997 26.3753 77.5267 32.5205C77.6073 36.3012 75.0847 38.7184 71.4776 38.644C63.9812 38.4922 56.4755 38.6038 48.9729 38.5945C47.2778 38.5945 46.3977 39.9797 45.1643 40.7637C45.0837 40.8133 45.124 41.055 45.1116 41.21C45.0001 42.6138 45.6012 43.2615 47.0732 43.2615C54.9239 43.2615 62.7746 43.2615 70.6253 43.2615C71.5527 43.2375 72.4604 43.5317 73.1975 44.0951C75.1808 45.5702 77.2013 46.9926 79.2126 48.4337C80.6939 49.4718 82.1597 50.5131 83.7928 51.6783H83.7866Z" fill="#FDFCDC"/>
<path d="M46.1309 33.2611C44.2002 33.2611 42.8491 32.6599 41.8481 31.4203C39.2977 28.2594 36.7596 25.1015 34.2743 21.8848C33.8492 21.3558 33.5342 20.7471 33.3476 20.0946C33.1611 19.4421 33.1068 18.7589 33.1879 18.0851C33.269 17.4113 33.4839 16.7606 33.82 16.171C34.1561 15.5814 34.6066 15.0649 35.1451 14.6519C37.3639 12.9102 40.3947 13.2387 42.3006 15.4793C43.4503 16.8335 44.5535 18.2311 45.6165 19.6567C46.0813 20.2765 46.3478 20.3044 46.9087 19.7372C50.8465 15.7458 54.809 11.7781 58.7963 7.83414C61.198 5.45414 64.7928 5.66487 66.7049 8.24631C68.2884 10.3753 68.0746 13.1055 66.1037 15.095C62.2114 19.0214 58.2881 22.9323 54.3772 26.8339L49.5366 31.6713C48.5047 32.7002 47.2806 33.2766 46.1309 33.2611ZM45.821 29.5423C46.4408 29.5795 46.8065 29.1426 47.1876 28.7614C52.5261 23.4291 57.8615 18.0917 63.1937 12.7491C63.3954 12.5688 63.5782 12.3684 63.7392 12.151C63.9484 11.89 64.0516 11.5596 64.028 11.2259C64.0045 10.8921 63.8559 10.5796 63.6121 10.3505C63.3793 10.0833 63.0505 9.91881 62.6971 9.8927C62.3438 9.86658 61.9943 9.98099 61.7248 10.211C61.4536 10.4263 61.2007 10.6637 60.9687 10.9207C56.593 15.2964 52.2172 19.6722 47.8415 24.0479C46.4315 25.4548 45.4522 25.3928 44.2095 23.8341C42.66 21.8724 41.0889 19.8984 39.5146 17.946C38.9165 17.2023 38.1604 17.0164 37.398 17.6362C36.6357 18.2559 36.7286 19.0121 37.2741 19.7032C39.6912 22.7711 42.1301 25.8174 44.5597 28.873C44.6946 29.0849 44.8832 29.2574 45.1064 29.3728C45.3296 29.4882 45.5793 29.5424 45.8303 29.53L45.821 29.5423Z" fill="#FDFCDC"/>
</g>
<defs>
<clipPath id="clip0_143_579">
<rect width="119" height="119" fill="white"/>
</clipPath>
</defs>
</svg>
